<?xml version="1.0" encoding="UTF-8"?>
<svg version="1.1" xmlns="http://www.w3.org/2000/svg" width="256" height="256">
<path d="M0 0 C0.68098771 -0.00367669 1.36197541 -0.00735338 2.06359911 -0.01114148 C4.34485663 -0.02215175 6.62606855 -0.02601769 8.90734863 -0.02983093 C10.54362125 -0.03609779 12.17989246 -0.04274479 13.81616211 -0.04974365 C19.19094861 -0.07076709 24.56573534 -0.08114721 29.94055176 -0.09111023 C31.79390986 -0.09515899 33.64726781 -0.09927595 35.50062561 -0.10346031 C44.21233327 -0.12251141 52.92403248 -0.13674033 61.63575697 -0.14507228 C71.67402653 -0.15483253 81.71207488 -0.18112067 91.75026655 -0.22157317 C99.51947444 -0.2518012 107.28861917 -0.26654764 115.05788469 -0.26985329 C119.69281873 -0.27219694 124.32751643 -0.28106715 128.96238708 -0.30631447 C133.32911935 -0.32971627 137.69546171 -0.33378016 142.0622406 -0.32355309 C143.6568736 -0.32306048 145.25152658 -0.32929894 146.84609985 -0.34310913 C164.42977644 -0.48676004 177.94668272 4.54547016 190.89758301 16.66279602 C199.64765906 26.01581849 205.32402908 38.09880357 205.36897278 50.92536926 C205.37264947 51.60635697 205.37632615 52.28734468 205.38011426 52.98896837 C205.39112453 55.27022589 205.39499047 57.55143781 205.39880371 59.8327179 C205.40507057 61.46899052 205.41171757 63.10526172 205.41871643 64.74153137 C205.43973987 70.11631788 205.45011999 75.4911046 205.46008301 80.86592102 C205.46413177 82.71927912 205.46824873 84.57263707 205.47243309 86.42599487 C205.49148418 95.13770253 205.50571311 103.84940175 205.51404506 112.56112623 C205.52380531 122.5993958 205.55009345 132.63744414 205.59054595 142.67563581 C205.62077397 150.4448437 205.63552042 158.21398844 205.63882607 165.98325396 C205.64116972 170.61818799 205.65003993 175.25288569 205.67528725 179.88775635 C205.69868905 184.25448861 205.70275294 188.62083098 205.69252586 192.98760986 C205.69203326 194.58224286 205.69827172 196.17689584 205.71208191 197.77146912 C205.85573282 215.3551457 200.82350262 228.87205198 188.70617676 241.82295227 C179.35315429 250.57302832 167.27016921 256.24939834 154.44360352 256.29434204 C153.76261581 256.29801873 153.0816281 256.30169542 152.38000441 256.30548352 C150.09874689 256.31649379 147.81753496 256.32035973 145.53625488 256.32417297 C143.89998226 256.33043983 142.26371106 256.33708683 140.62744141 256.34408569 C135.2526549 256.36510913 129.87786818 256.37548926 124.50305176 256.38545227 C122.64969366 256.38950103 120.7963357 256.39361799 118.94297791 256.39780235 C110.23127024 256.41685345 101.51957103 256.43108237 92.80784655 256.43941432 C82.76957698 256.44917457 72.73152863 256.47546272 62.69333696 256.51591522 C54.92412908 256.54614324 47.15498434 256.56088969 39.38571882 256.56419533 C34.75078479 256.56653898 30.11608709 256.57540919 25.48121643 256.60065651 C21.11448417 256.62405831 16.7481418 256.6281222 12.38136292 256.61789513 C10.78672992 256.61740252 9.19207693 256.62364099 7.59750366 256.63745117 C-9.98617292 256.78110208 -23.5030792 251.74887188 -36.45397949 239.63154602 C-45.20405554 230.27852355 -50.88042556 218.19553847 -50.92536926 205.36897278 C-50.92904595 204.68798507 -50.93272264 204.00699737 -50.93651074 203.30537367 C-50.94752101 201.02411615 -50.95138695 198.74290423 -50.9552002 196.46162415 C-50.96146706 194.82535152 -50.96811405 193.18908032 -50.97511292 191.55281067 C-50.99613636 186.17802416 -51.00651648 180.80323744 -51.01647949 175.42842102 C-51.02052826 173.57506292 -51.02464521 171.72170497 -51.02882957 169.86834717 C-51.04788067 161.15663951 -51.06210959 152.44494029 -51.07044154 143.73321581 C-51.08020179 133.69494624 -51.10648994 123.6568979 -51.14694244 113.61870623 C-51.17717046 105.84949834 -51.19191691 98.08035361 -51.19522256 90.31108809 C-51.1975662 85.67615405 -51.20643642 81.04145635 -51.23168373 76.40658569 C-51.25508553 72.03985343 -51.25914942 67.67351106 -51.24892235 63.30673218 C-51.24842974 61.71209918 -51.25466821 60.1174462 -51.26847839 58.52287292 C-51.4121293 40.93919634 -46.3798991 27.42229006 -34.26257324 14.47138977 C-24.90955078 5.72131372 -12.82656569 0.0449437 0 0 Z " fill="#1B9AF6" transform="translate(50.7781982421875,-0.1471710205078125)"/>
<path d="M0 0 C1.2055957 -0.02416992 1.2055957 -0.02416992 2.43554688 -0.04882812 C15.2397291 -0.05912916 25.26929962 5.6418108 34.48828125 14.09375 C36.6875 16.3125 36.6875 16.3125 37.94921875 18.53125 C40.76802342 21.41973299 44.35963282 21.08572414 48.1875 21.3125 C62.21142451 22.53567074 71.84061887 26.81130575 81.5 37.25 C84.712361 41.08242138 88.6875 46.13209266 88.6875 51.3125 C89.63109375 51.26609375 90.5746875 51.2196875 91.546875 51.171875 C105.30024925 50.78523396 116.52169903 53.73842374 126.84375 63.3125 C135.40967834 72.26197737 138.97281054 82.09653403 138.83984375 94.28515625 C138.2696087 105.61675021 132.92371393 116.54694373 124.6171875 124.2265625 C114.46864119 132.53634781 104.93265478 134.44995216 92.05541992 134.48950195 C91.11461075 134.49607315 90.17380157 134.50264435 89.20448303 134.50941467 C86.1089773 134.52903223 83.01351977 134.54078284 79.91796875 134.55078125 C78.85567865 134.55485678 77.79338856 134.5589323 76.69890785 134.56313133 C71.07881493 134.58394029 65.45874608 134.59826577 59.83862305 134.60766602 C54.05189833 134.61873516 48.26555759 134.65315614 42.47896862 134.69283772 C38.01181854 134.7190426 33.54475962 134.72736118 29.07753944 134.73094749 C26.94501456 134.73580133 24.81249342 134.74738077 22.68004417 134.76598549 C19.68897748 134.79046515 16.69890091 134.789396 13.70776367 134.7824707 C12.40363022 134.80168579 12.40363022 134.80168579 11.07315063 134.82128906 C0.74170137 134.73466969 -6.74977856 130.72342599 -14.11328125 123.68359375 C-20.99172034 116.2675857 -23.66764256 108.78235218 -23.5625 98.75 C-23.57023437 98.00814453 -23.57796875 97.26628906 -23.5859375 96.50195312 C-23.57104885 92.32196582 -23.21767475 89.13040972 -21.3125 85.3125 C-22.3025 85.0340625 -22.3025 85.0340625 -23.3125 84.75 C-32.77935343 80.2137994 -38.60914848 71.65221816 -42.63671875 62.20703125 C-46.88685994 49.96364208 -46.73298807 38.13172991 -41.3125 26.3125 C-34.71664554 13.58215915 -25.6558147 6.54790904 -12.59375 1.19921875 C-8.33532153 0.04842915 -4.39084406 -0.01735511 0 0 Z " fill="#E2F3FD" transform="translate(81.3125,57.6875)"/>
<path d="M0 0 C1.2055957 -0.02416992 1.2055957 -0.02416992 2.43554688 -0.04882812 C15.2397291 -0.05912916 25.26929962 5.6418108 34.48828125 14.09375 C39.6875 19.33914298 39.6875 19.33914298 39.6875 22.3125 C38.45386719 22.62380859 38.45386719 22.62380859 37.1953125 22.94140625 C24.6327711 26.40843557 15.33534795 32.49447036 8.25390625 43.55078125 C5.4952739 48.55233723 4.35531632 52.9799123 3.5 58.625 C2.33674919 64.77361143 2.33674919 64.77361143 -0.47265625 67.10546875 C-3.0625 68.3125 -3.0625 68.3125 -5.74609375 69.328125 C-13.30280926 72.22659122 -16.93141694 78.30103744 -20.3125 85.3125 C-27.52891045 84.37563268 -31.94270428 79.30372943 -36.30859375 73.79296875 C-43.68489293 62.95853361 -46.76202284 51.37314908 -45.3125 38.3125 C-42.68051586 25.69766478 -35.79330451 14.82317424 -25.3125 7.3125 C-17.03663619 2.4119885 -9.59717341 -0.03793349 0 0 Z " fill="#FDD302" transform="translate(81.3125,57.6875)"/>
<path d="M0 0 C0.62867668 1.37332284 1.25273891 2.74875833 1.875 4.125 C2.22304687 4.89070313 2.57109375 5.65640625 2.9296875 6.4453125 C7.09012642 16.37570321 7.66698247 27.73950097 4 38 C-1.57282218 51.6020857 -9.91087518 61.16142224 -23.515625 67.09765625 C-35.40605065 71.01857882 -48.800579 70.56069317 -60.0078125 65.09375 C-60.66523437 64.7328125 -61.32265625 64.371875 -62 64 C-58.60592611 54.76057664 -52.78712445 48.55402276 -44 44 C-41.22265625 43.3359375 -41.22265625 43.3359375 -39 43 C-39.0825 42.0925 -39.165 41.185 -39.25 40.25 C-39.18322973 29.2329062 -33.23997229 19.54190378 -25.8984375 11.77734375 C-18.65441348 4.93007723 -10.18705802 -0.28297383 0 0 Z " fill="#FEFADE" transform="translate(122,80)"/>
<path d="M0 0 C0.99 0 1.98 0 3 0 C3 0.66 3 1.32 3 2 C2.01 1.67 1.02 1.34 0 1 C0 0.67 0 0.34 0 0 Z M0 1 C0 1.66 0 2.32 0 3 C-1.32 3.33 -2.64 3.66 -4 4 C-4.33 3.34 -4.66 2.68 -5 2 C-3 1 -3 1 0 1 Z M-7 3 C-6.34 3 -5.68 3 -5 3 C-5.33 3.66 -5.66 4.32 -6 5 C-6.33 4.34 -6.66 3.68 -7 3 Z M-9 4 C-8.34 4 -7.68 4 -7 4 C-7.33 4.66 -7.66 5.32 -8 6 C-8.33 5.34 -8.66 4.68 -9 4 Z M-9 5 C-10 8 -10 8 -12.0625 9.1875 C-12.701875 9.455625 -13.34125 9.72375 -14 10 C-14 9.01 -14 8.02 -14 7 C-11 5 -11 5 -9 5 Z M-16 9 C-16 12 -16 12 -17.75 14.04296875 C-18.4925 14.75066406 -19.235 15.45835938 -20 16.1875 C-20.7425 16.90292969 -21.485 17.61835938 -22.25 18.35546875 C-23.11625 19.16951172 -23.11625 19.16951172 -24 20 C-24.66 19.67 -25.32 19.34 -26 19 C-24.90033225 17.70450101 -23.79508199 16.41373929 -22.6875 15.125 C-22.07261719 14.40570312 -21.45773438 13.68640625 -20.82421875 12.9453125 C-19 11 -19 11 -16 9 Z M-27 20 C-26.34 20.66 -25.68 21.32 -25 22 C-26.375 24 -26.375 24 -28 26 C-28.66 26 -29.32 26 -30 26 C-28.125 21.125 -28.125 21.125 -27 20 Z M-31 26 C-30.34 26.66 -29.68 27.32 -29 28 C-29.66 28 -30.32 28 -31 28 C-31 27.34 -31 26.68 -31 26 Z M-32 28 C-31.34 28.66 -30.68 29.32 -30 30 C-30.66 30 -31.32 30 -32 30 C-32 29.34 -32 28.68 -32 28 Z M-33 30 C-32.34 30.33 -31.68 30.66 -31 31 C-31.33 32.32 -31.66 33.64 -32 35 C-32.66 35 -33.32 35 -34 35 C-33.67 33.35 -33.34 31.7 -33 30 Z " fill="#1C73F7" transform="translate(37,2)"/>
<path d="M0 0 C0.33 0.99 0.66 1.98 1 3 C-1.31 5.31 -3.62 7.62 -6 10 C-6.99 9.67 -7.98 9.34 -9 9 C-6.03 6.03 -3.06 3.06 0 0 Z " fill="#18CAFC" transform="translate(243,234)"/>
<path d="M0 0 C7.48291572 6.15034169 7.48291572 6.15034169 10 10 C5.57299578 8.60865582 3.00586708 6.52115858 0 3 C0 2.01 0 1.02 0 0 Z " fill="#19C8FC" transform="translate(12,234)"/>
<path d="M0 0 C3.28754511 0.57889381 4.93672495 1.54828411 7.25 3.9375 C7.77078125 4.46214844 8.2915625 4.98679687 8.828125 5.52734375 C10 7 10 7 10 9 C6.78956118 7.61811547 4.95063635 6.07578097 2.75 3.375 C2.22921875 2.74335938 1.7084375 2.11171875 1.171875 1.4609375 C0.78515625 0.97882812 0.3984375 0.49671875 0 0 Z " fill="#1A6CF7" transform="translate(234,12)"/>
<path d="M0 0 C0 3 0 3 -2.5 5.6875 C-3.325 6.450625 -4.15 7.21375 -5 8 C-5.66 7.67 -6.32 7.34 -7 7 C-2.25 1.125 -2.25 1.125 0 0 Z " fill="#FFF9CB" transform="translate(71,129)"/>
<path d="M0 0 C3 1 3 1 3 1 Z " fill="#00E2FF" transform="translate(216,255)"/>
<path d="M0 0 C3 1 3 1 3 1 Z " fill="#00E2FF" transform="translate(37,255)"/>
<path d="" fill="#00B8FF" transform="translate(0,0)"/>
<path d="" fill="#00B8FF" transform="translate(0,0)"/>
<path d="" fill="#0047FF" transform="translate(0,0)"/>
<path d="" fill="#001CFF" transform="translate(0,0)"/>
<path d="M0 0 C3 1 3 1 3 1 Z " fill="#0047FF" transform="translate(216,0)"/>
<path d="M0 0 C3 1 3 1 3 1 Z " fill="#0047FF" transform="translate(37,0)"/>
<path d="M0 0 C2 1 2 1 2 1 Z " fill="#00D4FF" transform="translate(219,254)"/>
<path d="M0 0 C2 1 2 1 2 1 Z " fill="#00D4FF" transform="translate(35,254)"/>
<path d="M0 0 C2 1 2 1 2 1 Z " fill="#00D4FF" transform="translate(222,253)"/>
<path d="M0 0 C2 1 2 1 2 1 Z " fill="#00D4FF" transform="translate(32,253)"/>
<path d="M0 0 C2 1 2 1 2 1 Z " fill="#00D4FF" transform="translate(224,252)"/>
<path d="M0 0 C2 1 2 1 2 1 Z " fill="#00D4FF" transform="translate(30,252)"/>
<path d="M0 0 C2 1 2 1 2 1 Z " fill="#00D4FF" transform="translate(226,251)"/>
<path d="M0 0 C2 1 2 1 2 1 Z " fill="#00D4FF" transform="translate(28,251)"/>
<path d="M0 0 C2 1 2 1 2 1 Z " fill="#00D4FF" transform="translate(231,248)"/>
<path d="M0 0 C2 1 2 1 2 1 Z " fill="#00D4FF" transform="translate(23,248)"/>
<path d="M0 0 C2 1 2 1 2 1 Z " fill="#00FFFF" transform="translate(235,245)"/>
<path d="M0 0 C2 1 2 1 2 1 Z " fill="#00FFFF" transform="translate(19,245)"/>
<path d="" fill="#00FFFF" transform="translate(0,0)"/>
<path d="" fill="#00FFFF" transform="translate(0,0)"/>
<path d="" fill="#00D4FF" transform="translate(0,0)"/>
<path d="" fill="#00D4FF" transform="translate(0,0)"/>
<path d="" fill="#00D4FF" transform="translate(0,0)"/>
<path d="" fill="#00D4FF" transform="translate(0,0)"/>
<path d="" fill="#00D4FF" transform="translate(0,0)"/>
<path d="" fill="#0095FF" transform="translate(0,0)"/>
<path d="" fill="#00D4FF" transform="translate(0,0)"/>
<path d="" fill="#00D4FF" transform="translate(0,0)"/>
<path d="" fill="#0095FF" transform="translate(0,0)"/>
<path d="" fill="#0095FF" transform="translate(0,0)"/>
<path d="" fill="#006AFF" transform="translate(0,0)"/>
<path d="" fill="#006AFF" transform="translate(0,0)"/>
<path d="" fill="#002AFF" transform="translate(0,0)"/>
<path d="" fill="#002AFF" transform="translate(0,0)"/>
<path d="" fill="#006AFF" transform="translate(0,0)"/>
<path d="" fill="#006AFF" transform="translate(0,0)"/>
<path d="" fill="#002AFF" transform="translate(0,0)"/>
<path d="" fill="#002AFF" transform="translate(0,0)"/>
<path d="" fill="#002AFF" transform="translate(0,0)"/>
<path d="" fill="#002AFF" transform="translate(0,0)"/>
<path d="" fill="#0000FF" transform="translate(0,0)"/>
<path d="" fill="#0000FF" transform="translate(0,0)"/>
<path d="M0 0 C2 1 2 1 2 1 Z " fill="#0000FF" transform="translate(235,10)"/>
<path d="M0 0 C2 1 2 1 2 1 Z " fill="#0000FF" transform="translate(19,10)"/>
<path d="M0 0 C2 1 2 1 2 1 Z " fill="#002AFF" transform="translate(231,7)"/>
<path d="M0 0 C2 1 2 1 2 1 Z " fill="#002AFF" transform="translate(23,7)"/>
<path d="M0 0 C2 1 2 1 2 1 Z " fill="#002AFF" transform="translate(226,4)"/>
<path d="M0 0 C2 1 2 1 2 1 Z " fill="#002AFF" transform="translate(28,4)"/>
<path d="M0 0 C2 1 2 1 2 1 Z " fill="#006AFF" transform="translate(224,3)"/>
<path d="M0 0 C2 1 2 1 2 1 Z " fill="#002AFF" transform="translate(30,3)"/>
<path d="M0 0 C2 1 2 1 2 1 Z " fill="#002AFF" transform="translate(222,2)"/>
<path d="M0 0 C2 1 2 1 2 1 Z " fill="#002AFF" transform="translate(32,2)"/>
<path d="M0 0 C2 1 2 1 2 1 Z " fill="#002AFF" transform="translate(219,1)"/>
<path d="M0 0 C2 1 2 1 2 1 Z " fill="#002AFF" transform="translate(35,1)"/>
<path d="" fill="#00AAFF" transform="translate(0,0)"/>
<path d="" fill="#00AAFF" transform="translate(0,0)"/>
<path d="" fill="#00AAFF" transform="translate(0,0)"/>
<path d="" fill="#00AAFF" transform="translate(0,0)"/>
<path d="" fill="#00AAFF" transform="translate(0,0)"/>
<path d="" fill="#00AAFF" transform="translate(0,0)"/>
<path d="" fill="#00AAFF" transform="translate(0,0)"/>
<path d="" fill="#00AAFF" transform="translate(0,0)"/>
<path d="" fill="#00FFFF" transform="translate(0,0)"/>
<path d="" fill="#00FFFF" transform="translate(0,0)"/>
<path d="" fill="#00AAFF" transform="translate(0,0)"/>
<path d="" fill="#00AAFF" transform="translate(0,0)"/>
<path d="" fill="#00BFFF" transform="translate(0,0)"/>
<path d="" fill="#00AAFF" transform="translate(0,0)"/>
<path d="" fill="#00BFFF" transform="translate(0,0)"/>
<path d="" fill="#00BFFF" transform="translate(0,0)"/>
<path d="" fill="#00BFFF" transform="translate(0,0)"/>
<path d="" fill="#00BFFF" transform="translate(0,0)"/>
<path d="" fill="#00BFFF" transform="translate(0,0)"/>
<path d="" fill="#00AAFF" transform="translate(0,0)"/>
<path d="" fill="#00AAFF" transform="translate(0,0)"/>
<path d="" fill="#00AAFF" transform="translate(0,0)"/>
<path d="" fill="#00FFFF" transform="translate(0,0)"/>
<path d="" fill="#00FFFF" transform="translate(0,0)"/>
<path d="" fill="#00AAFF" transform="translate(0,0)"/>
<path d="" fill="#00AAFF" transform="translate(0,0)"/>
<path d="" fill="#00AAFF" transform="translate(0,0)"/>
<path d="" fill="#00AAFF" transform="translate(0,0)"/>
<path d="" fill="#00AAFF" transform="translate(0,0)"/>
<path d="" fill="#00AAFF" transform="translate(0,0)"/>
<path d="" fill="#00AAFF" transform="translate(0,0)"/>
<path d="" fill="#00AAFF" transform="translate(0,0)"/>
<path d="" fill="#0055FF" transform="translate(0,0)"/>
<path d="" fill="#0055FF" transform="translate(0,0)"/>
<path d="" fill="#0055FF" transform="translate(0,0)"/>
<path d="" fill="#0055FF" transform="translate(0,0)"/>
<path d="" fill="#0055FF" transform="translate(0,0)"/>
<path d="" fill="#0055FF" transform="translate(0,0)"/>
<path d="" fill="#0055FF" transform="translate(0,0)"/>
<path d="" fill="#0055FF" transform="translate(0,0)"/>
<path d="" fill="#0080FF" transform="translate(0,0)"/>
<path d="" fill="#0080FF" transform="translate(0,0)"/>
<path d="" fill="#0055FF" transform="translate(0,0)"/>
<path d="" fill="#0055FF" transform="translate(0,0)"/>
<path d="" fill="#0080FF" transform="translate(0,0)"/>
<path d="" fill="#0080FF" transform="translate(0,0)"/>
<path d="" fill="#0080FF" transform="translate(0,0)"/>
<path d="" fill="#0080FF" transform="translate(0,0)"/>
<path d="" fill="#0080FF" transform="translate(0,0)"/>
<path d="" fill="#0080FF" transform="translate(0,0)"/>
<path d="" fill="#0080FF" transform="translate(0,0)"/>
<path d="" fill="#0055FF" transform="translate(0,0)"/>
<path d="" fill="#0055FF" transform="translate(0,0)"/>
<path d="" fill="#0055FF" transform="translate(0,0)"/>
<path d="" fill="#0080FF" transform="translate(0,0)"/>
<path d="" fill="#0080FF" transform="translate(0,0)"/>
<path d="" fill="#0055FF" transform="translate(0,0)"/>
<path d="" fill="#0055FF" transform="translate(0,0)"/>
<path d="" fill="#0055FF" transform="translate(0,0)"/>
<path d="" fill="#0055FF" transform="translate(0,0)"/>
<path d="" fill="#0055FF" transform="translate(0,0)"/>
<path d="" fill="#0055FF" transform="translate(0,0)"/>
<path d="" fill="#0055FF" transform="translate(0,0)"/>
<path d="" fill="#0055FF" transform="translate(0,0)"/>
</svg>
